# xmcd
#
# Track frame offsets:
#	150
#	25396
#	42017
#	60904
#	79265
#	102352
#	138192
#	161219
#	171715
#	194821
#
# Disc length: 2815 seconds
#
# Revision: 1
# Processed by: cddbd v1.5.2PL0 Copyright (c) Steve Scherf et al.
# Submitted via: audiograbber 1.83.01
#
DISCID=8b0afd0a
DTITLE=Rory Gallagher - Fresh Evidence
DYEAR=1990
DGENRE=Blues
TTITLE0=Kid Gloves
TTITLE1=King Of Zydeco
TTITLE2=Middle Name
TTITLE3=Alexis
TTITLE4=Empire State Express
TTITLE5=Ghost Blues
TTITLE6=Heaven's Gate
TTITLE7=The Loop
TTITLE8=Walkin' Wounded
TTITLE9=Slumming Angel
EXTD=P&C 1990 Strange Music Ltd./Capo Records\nCD INT 845.144
EXTT0=
EXTT1=
EXTT2=
EXTT3=Instrumental
EXTT4=
EXTT5=
EXTT6=
EXTT7=Instrumental
EXTT8=
EXTT9=
PLAYORDER=
